<svg width="217" height="42" viewBox="0 0 217 42" fill="none" xmlns="http://www.w3.org/2000/svg">
<path d="M0 12.2197H74.5512L69.0594 41.8735H0V12.2197Z" fill="#0097B2"/>
<path d="M79.8142 0H217V29.6538H74.5512L79.8142 0Z" fill="#0097B2"/>
<path d="M182.272 42L67.7917 41.8735L67.8043 31.7125L184.115 31.8419L182.272 42Z" fill="#0097B2"/>
<path d="M22.723 23.5963L22.215 23.4182C22.2488 23.2995 22.2658 23.1807 22.2658 23.062C22.2658 22.7652 22.1093 22.4981 21.796 22.2606C21.4827 22.0232 21.0848 21.8202 20.6022 21.652C20.1196 21.4839 19.5947 21.3603 19.0274 21.2812C18.4602 21.202 17.9224 21.1624 17.4145 21.1624C16.7879 21.1624 16.1658 21.2662 15.5477 21.474C14.9296 21.6817 14.3793 22.0034 13.8967 22.4387C13.4141 22.874 13.0246 23.438 12.7283 24.1305C12.432 24.8231 12.2838 25.664 12.2838 26.6534C12.2838 27.623 12.432 28.4588 12.7283 29.1613C13.0246 29.8637 13.4141 30.4328 13.8967 30.8681C14.3793 31.3034 14.9296 31.6248 15.5477 31.8326C16.1658 32.0403 16.7879 32.1444 17.4145 32.1444C18.3796 32.1444 19.2476 32.0502 20.018 31.8623C20.7885 31.6743 21.4445 31.4716 21.9864 31.2539V28.7014H18.7352C18.4982 28.7014 18.3204 28.7607 18.2018 28.8795C18.0833 28.9982 18.0071 29.2554 17.9732 29.6512H17.5161V25.852H17.9732C18.0071 26.1884 18.0833 26.401 18.2018 26.49C18.3204 26.5791 18.4982 26.6237 18.7352 26.6237H25.0851V27.158C24.7465 27.2173 24.5348 27.2866 24.4501 27.3657C24.3655 27.4449 24.3231 27.6131 24.3231 27.8703V31.2243C24.3231 31.4221 24.3739 31.5507 24.4755 31.6101C24.5771 31.6695 24.6957 31.7387 24.8311 31.8179V32.2928C24.2723 32.7479 23.684 33.1238 23.066 33.4206C22.4479 33.7174 21.8214 33.9498 21.1864 34.118C20.5514 34.2862 19.9164 34.3902 19.2814 34.4298C18.6464 34.4694 18.024 34.4891 17.4145 34.4891C16.2291 34.4891 15.1498 34.3159 14.1761 33.9696C13.2024 33.6233 12.3685 33.1089 11.6742 32.4262C10.98 31.7435 10.4424 30.9125 10.0614 29.933C9.68036 28.9535 9.48987 27.8406 9.48987 26.594C9.48987 25.3474 9.68036 24.2343 10.0614 23.2548C10.4424 22.2753 10.98 21.4395 11.6742 20.7469C12.3685 20.0544 13.2024 19.5249 14.1761 19.1589C15.1498 18.7928 16.2291 18.6099 17.4145 18.6099C18.1595 18.6099 18.8707 18.6693 19.548 18.788C20.2253 18.9067 20.8265 19.0401 21.3514 19.1885C21.8763 19.3369 22.3125 19.4754 22.6596 19.6041C23.0067 19.7327 23.2225 19.7971 23.3072 19.7971C23.4596 19.7971 23.5781 19.7576 23.6628 19.6784C23.7474 19.5993 23.8321 19.53 23.9168 19.4706L24.2215 19.6784L22.723 23.5963Z" fill="white"/>
<path d="M32.2732 18.7879V19.3222C32.1208 19.3222 31.9768 19.3468 31.8414 19.3963C31.7059 19.4457 31.6382 19.5695 31.6382 19.7674C31.6382 19.8861 31.7611 20.168 32.0066 20.6132C32.2521 21.0584 32.54 21.563 32.8702 22.1269C33.2004 22.6908 33.5432 23.2697 33.8987 23.8634C34.2543 24.457 34.5422 24.9616 34.7623 25.3771L37.7341 20.5985C37.8696 20.361 37.9796 20.173 38.0643 20.0345C38.1489 19.896 38.1913 19.7674 38.1913 19.6487C38.1913 19.5102 38.111 19.4211 37.9501 19.3816C37.7892 19.342 37.641 19.3222 37.5055 19.3222V18.7879H41.9504V19.3222C41.815 19.3222 41.688 19.3369 41.5694 19.3666C41.4509 19.3963 41.3282 19.4655 41.2013 19.5743C41.0743 19.6832 40.9388 19.8415 40.7949 20.0492C40.6509 20.257 40.4772 20.5391 40.2741 20.8953L35.9561 28.0484V33.3315C35.9561 33.6877 36.1508 33.8658 36.5403 33.8658V34.4H32.5272V33.8658C32.6796 33.8658 32.8066 33.8211 32.9082 33.7321C33.0098 33.6431 33.0606 33.5096 33.0606 33.3315V28.0484L28.1584 20.0345C28.0399 19.8367 27.858 19.6685 27.6125 19.53C27.3669 19.3915 27.1594 19.3222 26.9901 19.3222V18.7879H32.2732Z" fill="white"/>
<path d="M44.465 33.8658C44.6005 33.8658 44.719 33.8211 44.8206 33.7321C44.9222 33.6431 44.973 33.5096 44.973 33.3315V19.7971C44.973 19.619 44.9222 19.4952 44.8206 19.4259C44.719 19.3567 44.6005 19.3222 44.465 19.3222V18.7879H49.2148V19.3222C49.1301 19.3222 49.0413 19.3519 48.9482 19.4112C48.855 19.4706 48.8084 19.5596 48.8084 19.6784C48.8084 19.7773 48.8422 19.9059 48.91 20.0642C48.9777 20.2225 49.0539 20.3907 49.1386 20.5688L52.7707 28.2858L56.4282 20.6578C56.5468 20.4006 56.6358 20.1976 56.6951 20.0492C56.7543 19.9008 56.7838 19.7674 56.7838 19.6487C56.7838 19.431 56.6738 19.3222 56.4536 19.3222V18.7879H61.1526V19.3222C61.0171 19.3222 60.8986 19.3567 60.797 19.4259C60.6954 19.4952 60.6446 19.619 60.6446 19.7971V33.3315C60.6446 33.5096 60.6954 33.6431 60.797 33.7321C60.8986 33.8211 61.0171 33.8658 61.1526 33.8658V34.4H57.1648V33.8658C57.622 33.8658 57.8506 33.6877 57.8506 33.3315V23.4775H57.7998L52.6945 34.4H52.6183L47.6146 23.4478H47.5638V33.3315C47.5638 33.6877 47.8008 33.8658 48.275 33.8658V34.4H44.465V33.8658Z" fill="white"/>
<path d="M94.2906 21.2456C94.2906 21.6017 94.4768 21.7798 94.8494 21.7798V22.3141H90.9378V21.7798C91.0563 21.7798 91.1623 21.7352 91.2554 21.6461C91.3486 21.5571 91.395 21.4237 91.395 21.2456V9.43259H87.2041C87.0517 9.43259 86.9036 9.48207 86.7597 9.58101C86.6158 9.67994 86.5437 9.86791 86.5437 10.1449H86.0865V5.98962H86.5437C86.5437 6.26665 86.6158 6.45462 86.7597 6.55355C86.9036 6.65249 87.0517 6.70196 87.2041 6.70196H98.4815C98.6339 6.70196 98.7822 6.65249 98.9261 6.55355C99.07 6.45462 99.1419 6.26665 99.1419 5.98962H99.5991V10.1449H99.1419C99.1419 9.86791 99.07 9.67994 98.9261 9.58101C98.7822 9.48207 98.6339 9.43259 98.4815 9.43259H94.2906V21.2456Z" fill="white"/>
<path d="M110.673 13.6473C111.283 13.6473 111.791 13.5928 112.197 13.4839C112.604 13.3751 112.925 13.2219 113.162 13.024C113.4 12.8261 113.569 12.5935 113.67 12.3264C113.772 12.0593 113.823 11.7675 113.823 11.4509C113.823 11.1343 113.772 10.8423 113.67 10.5752C113.569 10.3081 113.4 10.0757 113.162 9.87784C112.925 9.67997 112.604 9.52648 112.197 9.41765C111.791 9.30882 111.283 9.25454 110.673 9.25454H106.279V13.6473H110.673ZM111.334 6.702C112.147 6.702 112.883 6.78596 113.544 6.95415C114.204 7.12234 114.771 7.38947 115.245 7.75553C115.719 8.1216 116.083 8.59648 116.337 9.18021C116.591 9.76393 116.718 10.4813 116.718 11.3322C116.718 12.6382 116.388 13.6374 115.728 14.33C115.067 15.0225 114.178 15.4875 113.061 15.725L116.439 21.3643C116.558 21.5622 116.697 21.6809 116.858 21.7205C117.019 21.7601 117.167 21.7799 117.303 21.7799V22.3141H112.553V21.7799C112.705 21.7799 112.837 21.7502 112.947 21.6908C113.057 21.6315 113.112 21.5523 113.112 21.4534C113.112 21.3544 113.078 21.2405 113.01 21.1119C112.942 20.9833 112.841 20.8103 112.705 20.5926L109.911 15.9624H106.279V21.2456C106.279 21.4237 106.334 21.5571 106.444 21.6462C106.554 21.7352 106.753 21.7799 107.041 21.7799V22.3141H102.647V21.7799C103.138 21.7799 103.384 21.6018 103.384 21.2456V7.77051C103.384 7.41434 103.138 7.23625 102.647 7.23625V6.702H111.334Z" fill="white"/>
<path d="M129.063 16.2592L126.929 10.7386L124.542 16.2592H129.063ZM119.487 21.7799C119.707 21.7403 119.881 21.6117 120.008 21.394C120.135 21.1763 120.257 20.929 120.376 20.652L125.075 9.10614C125.193 8.84891 125.299 8.61146 125.393 8.3938C125.486 8.17614 125.532 7.98816 125.532 7.82986C125.532 7.63199 125.473 7.49349 125.354 7.41434C125.236 7.33519 125.109 7.27582 124.973 7.23625V6.702H129.266V7.23625C129.147 7.27582 129.029 7.33011 128.91 7.39936C128.792 7.46862 128.732 7.6122 128.732 7.82986C128.732 7.98816 128.762 8.14646 128.821 8.30476C128.881 8.46306 128.97 8.67082 129.088 8.92805L134.371 21.0082C134.456 21.2258 134.57 21.3841 134.714 21.483C134.858 21.582 135.023 21.6809 135.209 21.7799V22.3141H130.739V21.7799C130.807 21.7799 130.891 21.7502 130.993 21.6908C131.095 21.6315 131.145 21.5424 131.145 21.4237C131.145 21.2258 131.078 20.9686 130.942 20.652L129.977 18.4556H123.78L122.865 20.5629C122.696 20.9785 122.611 21.2753 122.611 21.4534C122.611 21.671 122.772 21.7799 123.094 21.7799V22.3141H119.487V21.7799Z" fill="white"/>
<path d="M152.176 20.1771C152.126 20.1771 152.079 20.172 152.037 20.1621C151.994 20.1522 151.948 20.1474 151.897 20.1474C151.795 20.1474 151.554 20.2661 151.173 20.5036C150.792 20.741 150.31 21.0081 149.725 21.305C149.141 21.6018 148.476 21.859 147.731 22.0767C146.986 22.2943 146.207 22.4031 145.395 22.4031C144.328 22.4031 143.303 22.2448 142.321 21.9283C141.339 21.6117 140.471 21.1218 139.718 20.4589C138.964 19.796 138.367 18.9701 137.927 17.9807C137.487 16.9913 137.267 15.8338 137.267 14.508C137.267 13.2021 137.487 12.0493 137.927 11.0501C138.367 10.0508 138.964 9.21496 139.718 8.54219C140.471 7.86943 141.339 7.36485 142.321 7.02847C143.303 6.69208 144.328 6.5239 145.395 6.5239C146.258 6.5239 147.042 6.60304 147.744 6.76134C148.447 6.91964 149.061 7.08783 149.586 7.26591C150.111 7.444 150.525 7.6122 150.83 7.7705C151.135 7.92879 151.321 8.00794 151.389 8.00794C151.474 8.00794 151.546 7.95847 151.605 7.85953C151.664 7.7606 151.711 7.68145 151.745 7.62208L152.126 7.97825L150.144 11.5696L149.89 11.3619C149.89 11.3025 149.886 11.2431 149.878 11.1838C149.869 11.1244 149.857 11.0552 149.84 10.976C149.806 10.7584 149.636 10.5356 149.332 10.3081C149.027 10.0805 148.65 9.87783 148.201 9.69975C147.753 9.52166 147.279 9.37326 146.779 9.25453C146.28 9.13581 145.818 9.07644 145.395 9.07644C144.683 9.07644 144.002 9.19517 143.35 9.43261C142.698 9.67006 142.131 10.0163 141.648 10.4714C141.166 10.9266 140.78 11.4854 140.493 12.1483C140.205 12.8112 140.061 13.5681 140.061 14.419C140.061 15.2698 140.205 16.0266 140.493 16.6894C140.78 17.3523 141.166 17.9114 141.648 18.3665C142.131 18.8217 142.698 19.1679 143.35 19.4054C144.002 19.6428 144.683 19.7615 145.395 19.7615C145.937 19.7615 146.504 19.6872 147.096 19.5388C147.689 19.3904 148.231 19.2024 148.722 18.9749C149.213 18.7473 149.624 18.4901 149.954 18.2032C150.284 17.9163 150.449 17.6443 150.449 17.3871C150.449 17.2486 150.415 17.1298 150.348 17.0309L150.703 16.7935L152.38 19.9396L152.176 20.1771Z" fill="white"/>
<path d="M159.542 21.2456C159.542 21.4237 159.593 21.5571 159.695 21.6462C159.796 21.7352 159.915 21.7799 160.05 21.7799V22.3141H156.088V21.7799C156.46 21.7799 156.647 21.6018 156.647 21.2456V7.77051C156.647 7.41434 156.46 7.23625 156.088 7.23625V6.702H160.05V7.23625C159.915 7.23625 159.796 7.28063 159.695 7.36968C159.593 7.45872 159.542 7.59242 159.542 7.77051V13.4099L164.8 8.57188C165.037 8.33444 165.223 8.14138 165.359 7.99298C165.494 7.84458 165.562 7.72103 165.562 7.6221C165.562 7.48359 165.524 7.38465 165.448 7.32529C165.372 7.26593 165.282 7.23625 165.181 7.23625V6.702H170.515V7.23625C170.21 7.23625 169.905 7.38465 169.6 7.68146L163.759 13.1131L169.092 20.3255C169.313 20.6223 169.571 20.914 169.867 21.2009C170.164 21.4879 170.456 21.6809 170.743 21.7799V22.3141H166.044V21.7799C166.265 21.7799 166.375 21.7106 166.375 21.5721C166.375 21.4732 166.256 21.2555 166.019 20.9191L161.676 15.072L159.542 17.0012V21.2456Z" fill="white"/>
<path d="M185.907 9.90749C185.907 9.68983 185.835 9.52645 185.691 9.41762C185.547 9.30879 185.297 9.25451 184.942 9.25451H176.712V12.9349H181.691C182.029 12.9349 182.292 12.8804 182.478 12.7716C182.664 12.6627 182.757 12.3809 182.757 11.9258H183.215V16.556H182.757C182.757 16.1009 182.664 15.8089 182.478 15.6803C182.292 15.5517 182.029 15.4875 181.691 15.4875H176.712V19.5834H185.196C185.45 19.5834 185.657 19.5142 185.818 19.3757C185.979 19.2372 186.059 19.0492 186.059 18.8117H186.517V22.878H186.059C186.059 22.5812 185.979 22.413 185.818 22.3734C185.657 22.3339 185.45 22.3141 185.196 22.3141H173.36V21.7798C173.478 21.7798 173.584 21.7352 173.677 21.6461C173.77 21.5571 173.817 21.4237 173.817 21.2456V7.77048C173.817 7.59239 173.77 7.45869 173.677 7.36964C173.584 7.2806 173.478 7.23622 173.36 7.23622V6.70196H184.942C185.297 6.70196 185.547 6.63752 185.691 6.5089C185.835 6.38028 185.907 6.20728 185.907 5.98962H186.364V9.90749H185.907Z" fill="white"/>
<path d="M198.175 13.6473C198.785 13.6473 199.293 13.5928 199.699 13.4839C200.105 13.3751 200.427 13.2219 200.664 13.024C200.901 12.8261 201.071 12.5935 201.172 12.3264C201.274 12.0593 201.325 11.7675 201.325 11.4509C201.325 11.1343 201.274 10.8423 201.172 10.5752C201.071 10.3081 200.901 10.0757 200.664 9.87784C200.427 9.67997 200.105 9.52648 199.699 9.41765C199.293 9.30882 198.785 9.25454 198.175 9.25454H193.781V13.6473H198.175ZM198.835 6.702C199.648 6.702 200.385 6.78596 201.045 6.95415C201.706 7.12234 202.273 7.38947 202.747 7.75553C203.221 8.1216 203.585 8.59648 203.839 9.18021C204.093 9.76393 204.22 10.4813 204.22 11.3322C204.22 12.6382 203.89 13.6374 203.23 14.33C202.569 15.0225 201.68 15.4875 200.563 15.725L203.941 21.3643C204.059 21.5622 204.199 21.6809 204.36 21.7205C204.521 21.7601 204.669 21.7799 204.804 21.7799V22.3141H200.055V21.7799C200.207 21.7799 200.338 21.7502 200.448 21.6908C200.558 21.6315 200.613 21.5523 200.613 21.4534C200.613 21.3544 200.58 21.2405 200.512 21.1119C200.444 20.9833 200.342 20.8103 200.207 20.5926L197.413 15.9624H193.781V21.2456C193.781 21.4237 193.836 21.5571 193.946 21.6462C194.056 21.7352 194.255 21.7799 194.543 21.7799V22.3141H190.149V21.7799C190.64 21.7799 190.885 21.6018 190.885 21.2456V7.77051C190.885 7.41434 190.64 7.23625 190.149 7.23625V6.702H198.835Z" fill="white"/>
<path d="M81.6524 37.9442L81.7622 37.9923C81.776 38.0779 81.8114 38.1527 81.8686 38.2169C81.9259 38.2811 81.9956 38.3359 82.078 38.3814C82.1604 38.4268 82.2496 38.4616 82.3457 38.4856C82.4419 38.5097 82.5334 38.5217 82.6203 38.5217C82.8949 38.5217 83.0952 38.4749 83.221 38.3814C83.3469 38.2878 83.4098 38.1126 83.4098 37.8559V35.2809C83.4098 35.206 83.3823 35.1472 83.3274 35.1044C83.2725 35.0617 83.2199 35.0403 83.1695 35.0403V34.8959H84.4738V35.0403C84.396 35.0403 84.3297 35.0617 84.2747 35.1044C84.2198 35.1472 84.1924 35.206 84.1924 35.2809V37.9281C84.1924 38.1367 84.1546 38.3185 84.0791 38.4736C84.0036 38.6287 83.8972 38.757 83.7599 38.8587C83.6226 38.9603 83.4601 39.0325 83.2725 39.0752C83.0849 39.118 82.8766 39.1394 82.6478 39.1394C82.5059 39.1394 82.3755 39.1287 82.2565 39.1073C82.1375 39.0859 82.0311 39.0605 81.9373 39.0311C81.8435 39.0017 81.7611 38.9736 81.6902 38.9469C81.6192 38.9202 81.5609 38.9068 81.5151 38.9068C81.4648 38.9068 81.4236 38.9389 81.3915 39.0031L81.2886 38.9228L81.6524 37.9442Z" fill="white"/>
<path d="M87.508 35.5857C87.3341 35.5857 87.1602 35.6178 86.9863 35.682C86.8124 35.7462 86.6556 35.8384 86.516 35.9588C86.3765 36.0791 86.2632 36.2275 86.1762 36.404C86.0893 36.5804 86.0458 36.781 86.0458 37.0056C86.0458 37.2302 86.0893 37.4308 86.1762 37.6072C86.2632 37.7837 86.3765 37.9321 86.516 38.0525C86.6556 38.1728 86.8124 38.265 86.9863 38.3292C87.1602 38.3934 87.3341 38.4255 87.508 38.4255C87.6819 38.4255 87.8558 38.3934 88.0297 38.3292C88.2036 38.265 88.3604 38.1728 88.5 38.0525C88.6395 37.9321 88.7528 37.7837 88.8398 37.6072C88.9267 37.4308 88.9702 37.2302 88.9702 37.0056C88.9702 36.781 88.9267 36.5804 88.8398 36.404C88.7528 36.2275 88.6395 36.0791 88.5 35.9588C88.3604 35.8384 88.2036 35.7462 88.0297 35.682C87.8558 35.6178 87.6819 35.5857 87.508 35.5857ZM87.508 34.8477C87.7597 34.8477 88.016 34.8918 88.2769 34.9801C88.5377 35.0683 88.7757 35.2007 88.9908 35.3772C89.2059 35.5537 89.3821 35.7769 89.5194 36.047C89.6567 36.3171 89.7253 36.6366 89.7253 37.0056C89.7253 37.3746 89.6567 37.6941 89.5194 37.9642C89.3821 38.2343 89.2059 38.4576 88.9908 38.634C88.7757 38.8105 88.5377 38.9389 88.2769 39.0191C88.016 39.0993 87.7597 39.1394 87.508 39.1394C87.2563 39.1394 87 39.0993 86.7391 39.0191C86.4783 38.9389 86.2403 38.8105 86.0252 38.634C85.8101 38.4576 85.6339 38.2343 85.4966 37.9642C85.3593 37.6941 85.2907 37.3746 85.2907 37.0056C85.2907 36.6366 85.3593 36.3171 85.4966 36.047C85.6339 35.7769 85.8101 35.5537 86.0252 35.3772C86.2403 35.2007 86.4783 35.0683 86.7391 34.9801C87 34.8918 87.2563 34.8477 87.508 34.8477Z" fill="white"/>
<path d="M91.7574 35.0403C91.6567 35.0403 91.6064 35.0884 91.6064 35.1846V37.5912C91.6064 37.9281 91.699 38.1594 91.8844 38.2851C92.0697 38.4108 92.3409 38.4736 92.6979 38.4736C93.0548 38.4736 93.326 38.4108 93.5113 38.2851C93.6967 38.1594 93.7894 37.9281 93.7894 37.5912V35.1846C93.7894 35.0884 93.7207 35.0403 93.5834 35.0403V34.8959H94.6818V35.0403C94.5719 35.0403 94.517 35.0884 94.517 35.1846V37.5511C94.517 37.8666 94.4781 38.1273 94.4003 38.3332C94.3225 38.5391 94.2058 38.7036 94.0502 38.8266C93.8946 38.9496 93.7013 39.0325 93.4701 39.0752C93.239 39.118 92.9724 39.1394 92.6704 39.1394C92.3683 39.1394 92.1018 39.118 91.8707 39.0752C91.6395 39.0325 91.4462 38.9496 91.2906 38.8266C91.135 38.7036 91.0183 38.5391 90.9405 38.3332C90.8627 38.1273 90.8238 37.8666 90.8238 37.5511V35.1846C90.8238 35.0884 90.7597 35.0403 90.6316 35.0403V34.8959H91.7574V35.0403Z" fill="white"/>
<path d="M97.8532 36.773C98.0179 36.773 98.1552 36.7583 98.2651 36.7289C98.3749 36.6994 98.4619 36.658 98.5259 36.6045C98.59 36.551 98.6358 36.4882 98.6632 36.416C98.6907 36.3438 98.7044 36.2649 98.7044 36.1794C98.7044 36.0938 98.6907 36.0149 98.6632 35.9427C98.6358 35.8705 98.59 35.8077 98.5259 35.7542C98.4619 35.7007 98.3749 35.6593 98.2651 35.6299C98.1552 35.6004 98.0179 35.5857 97.8532 35.5857H96.6656V36.773H97.8532ZM98.0317 34.8959C98.2514 34.8959 98.4504 34.9186 98.6289 34.964C98.8074 35.0095 98.9607 35.0817 99.0889 35.1806C99.217 35.2796 99.3154 35.4079 99.384 35.5657C99.4527 35.7234 99.487 35.9173 99.487 36.1473C99.487 36.5002 99.3978 36.7703 99.2193 36.9575C99.0408 37.1447 98.8005 37.2703 98.4985 37.3345L99.4115 38.8587C99.4435 38.9121 99.4813 38.9442 99.5248 38.9549C99.5682 38.9656 99.6083 38.971 99.6449 38.971V39.1154H98.3612V38.971C98.4024 38.971 98.4378 38.9629 98.4676 38.9469C98.4973 38.9309 98.5122 38.9095 98.5122 38.8827C98.5122 38.856 98.5031 38.8252 98.4847 38.7905C98.4664 38.7557 98.439 38.7089 98.4024 38.6501L97.6472 37.3987H96.6656V38.8266C96.6656 38.8747 96.6805 38.9108 96.7102 38.9349C96.74 38.9589 96.7937 38.971 96.8715 38.971V39.1154H95.6839V38.971C95.8166 38.971 95.883 38.9228 95.883 38.8266V35.1846C95.883 35.0884 95.8166 35.0403 95.6839 35.0403V34.8959H98.0317Z" fill="white"/>
<path d="M100.716 38.971C100.803 38.971 100.846 38.9228 100.846 38.8266V35.1846C100.846 35.0884 100.803 35.0403 100.716 35.0403V34.8959H101.89V35.0403C101.853 35.0403 101.835 35.067 101.835 35.1205C101.835 35.1633 101.881 35.2381 101.972 35.3451L103.942 37.7356V35.1846C103.942 35.0884 103.883 35.0403 103.764 35.0403V34.8959H104.8V35.0403C104.713 35.0403 104.67 35.0884 104.67 35.1846V38.8266C104.67 38.9228 104.713 38.971 104.8 38.971V39.1154H103.688V38.971C103.748 38.971 103.778 38.9469 103.778 38.8988C103.778 38.8613 103.741 38.7998 103.668 38.7143L101.574 36.1633V38.8266C101.574 38.9228 101.627 38.971 101.732 38.971V39.1154H100.716V38.971Z" fill="white"/>
<path d="M109.413 35.7622C109.413 35.7034 109.394 35.6593 109.355 35.6298C109.316 35.6004 109.249 35.5857 109.153 35.5857H106.928V36.5804H108.274C108.365 36.5804 108.436 36.5657 108.487 36.5363C108.537 36.5069 108.562 36.4307 108.562 36.3077H108.686V37.5591H108.562C108.562 37.4361 108.537 37.3572 108.487 37.3225C108.436 37.2877 108.365 37.2703 108.274 37.2703H106.928V38.3773H109.221C109.29 38.3773 109.346 38.3586 109.389 38.3212C109.433 38.2837 109.455 38.2329 109.455 38.1688H109.578V39.2678H109.455C109.455 39.1875 109.433 39.1421 109.389 39.1314C109.346 39.1207 109.29 39.1153 109.221 39.1153H106.022V38.971C106.054 38.971 106.083 38.9589 106.108 38.9349C106.133 38.9108 106.146 38.8747 106.146 38.8265V35.1846C106.146 35.1365 106.133 35.1004 106.108 35.0763C106.083 35.0523 106.054 35.0402 106.022 35.0402V34.8958H109.153C109.249 34.8958 109.316 34.8785 109.355 34.8437C109.394 34.809 109.413 34.7622 109.413 34.7033H109.537V35.7622H109.413Z" fill="white"/>
<path d="M111.514 34.8959V35.0403C111.473 35.0403 111.434 35.047 111.397 35.0603C111.361 35.0737 111.342 35.1071 111.342 35.1606C111.342 35.1927 111.376 35.2689 111.442 35.3892C111.508 35.5095 111.586 35.6459 111.675 35.7983C111.765 35.9507 111.857 36.1072 111.953 36.2676C112.05 36.428 112.127 36.5644 112.187 36.6767L112.99 35.3852C113.027 35.321 113.056 35.2702 113.079 35.2328C113.102 35.1953 113.114 35.1606 113.114 35.1285C113.114 35.0911 113.092 35.067 113.048 35.0563C113.005 35.0456 112.965 35.0403 112.928 35.0403V34.8959H114.13V35.0403C114.093 35.0403 114.059 35.0443 114.027 35.0523C113.995 35.0603 113.961 35.079 113.927 35.1084C113.893 35.1379 113.856 35.1806 113.817 35.2368C113.778 35.2929 113.731 35.3691 113.677 35.4654L112.509 37.3987V38.8266C112.509 38.9228 112.562 38.971 112.667 38.971V39.1154H111.583V38.971C111.624 38.971 111.658 38.9589 111.686 38.9349C111.713 38.9108 111.727 38.8747 111.727 38.8266V37.3987L110.402 35.2328C110.37 35.1793 110.321 35.1338 110.254 35.0964C110.188 35.059 110.132 35.0403 110.086 35.0403V34.8959H111.514Z" fill="white"/>
<path d="M117.157 37.7917L117.226 37.8319C117.226 37.88 117.235 37.9228 117.253 37.9602C117.285 38.0244 117.348 38.0872 117.442 38.1487C117.536 38.2102 117.643 38.265 117.764 38.3132C117.886 38.3613 118.013 38.4001 118.145 38.4295C118.278 38.4589 118.397 38.4736 118.502 38.4736C118.58 38.4736 118.681 38.4669 118.804 38.4535C118.928 38.4402 119.049 38.4121 119.168 38.3693C119.287 38.3265 119.39 38.2677 119.477 38.1928C119.564 38.118 119.608 38.019 119.608 37.896C119.608 37.773 119.568 37.6821 119.487 37.6233C119.407 37.5645 119.302 37.5217 119.172 37.4949C119.041 37.4682 118.893 37.4508 118.725 37.4428C118.558 37.4348 118.388 37.4227 118.214 37.4067C118.04 37.3906 117.87 37.3639 117.703 37.3265C117.536 37.289 117.387 37.2262 117.256 37.138C117.126 37.0497 117.021 36.9294 116.941 36.777C116.861 36.6246 116.821 36.4254 116.821 36.1794C116.821 36.0136 116.854 35.8505 116.92 35.69C116.986 35.5296 117.088 35.3879 117.226 35.2649C117.363 35.1419 117.537 35.0416 117.747 34.964C117.958 34.8865 118.205 34.8477 118.489 34.8477C118.731 34.8477 118.942 34.8691 119.12 34.9119C119.299 34.9547 119.453 35.0001 119.584 35.0483C119.714 35.0964 119.824 35.1419 119.913 35.1846C120.002 35.2274 120.077 35.2488 120.136 35.2488C120.2 35.2488 120.246 35.2328 120.273 35.2007L120.356 35.2649L119.882 36.2676L119.814 36.2355C119.804 36.1606 119.786 36.0991 119.759 36.051C119.722 35.9868 119.661 35.924 119.577 35.8625C119.492 35.801 119.393 35.7462 119.278 35.698C119.164 35.6499 119.04 35.6111 118.907 35.5817C118.775 35.5523 118.642 35.5376 118.509 35.5376C118.409 35.5376 118.304 35.547 118.197 35.5657C118.089 35.5844 117.992 35.6125 117.905 35.6499C117.818 35.6873 117.746 35.7368 117.689 35.7983C117.632 35.8598 117.603 35.936 117.603 36.0269C117.603 36.1553 117.643 36.2515 117.723 36.3157C117.803 36.3799 117.909 36.428 118.039 36.4601C118.169 36.4922 118.318 36.5136 118.485 36.5243C118.652 36.535 118.823 36.5484 118.997 36.5644C119.171 36.5804 119.341 36.6085 119.508 36.6486C119.675 36.6887 119.824 36.7529 119.954 36.8412C120.085 36.9294 120.19 37.0484 120.27 37.1981C120.35 37.3479 120.39 37.5431 120.39 37.7837C120.39 38.0618 120.327 38.2891 120.201 38.4656C120.076 38.6421 119.919 38.7811 119.731 38.8827C119.544 38.9843 119.341 39.0525 119.124 39.0873C118.906 39.122 118.704 39.1394 118.516 39.1394C118.255 39.1394 118.037 39.122 117.861 39.0873C117.684 39.0525 117.538 39.0097 117.421 38.9589C117.304 38.9081 117.212 38.8626 117.143 38.8225C117.075 38.7824 117.015 38.7624 116.965 38.7624C116.933 38.7624 116.903 38.7838 116.875 38.8266L116.779 38.7624L117.157 37.7917Z" fill="white"/>
<path d="M123.363 38.8265C123.363 38.9228 123.413 38.971 123.514 38.971V39.1153H122.456V38.971C122.489 38.971 122.517 38.9589 122.542 38.9349C122.567 38.9108 122.58 38.8747 122.58 38.8265V35.6339H121.447C121.406 35.6339 121.366 35.6472 121.327 35.674C121.288 35.7007 121.269 35.7515 121.269 35.8264H121.145V34.7033H121.269C121.269 34.7782 121.288 34.829 121.327 34.8557C121.366 34.8825 121.406 34.8958 121.447 34.8958H124.495C124.537 34.8958 124.577 34.8825 124.615 34.8557C124.654 34.829 124.674 34.7782 124.674 34.7033H124.797V35.8264H124.674C124.674 35.7515 124.654 35.7007 124.615 35.674C124.577 35.6472 124.537 35.6339 124.495 35.6339H123.363V38.8265Z" fill="white"/>
<path d="M127.804 37.4789L127.227 35.9868L126.582 37.4789H127.804ZM125.216 38.971C125.276 38.9603 125.322 38.9255 125.357 38.8667C125.391 38.8079 125.424 38.741 125.456 38.6661L126.726 35.5456C126.758 35.4761 126.787 35.4119 126.812 35.3531C126.837 35.2943 126.85 35.2435 126.85 35.2007C126.85 35.1472 126.834 35.1098 126.802 35.0884C126.77 35.067 126.735 35.051 126.699 35.0403V34.8959H127.859V35.0403C127.827 35.051 127.795 35.0657 127.763 35.0844C127.731 35.1031 127.715 35.1419 127.715 35.2007C127.715 35.2435 127.723 35.2863 127.739 35.329C127.755 35.3718 127.779 35.428 127.811 35.4975L129.239 38.7624C129.262 38.8212 129.293 38.864 129.332 38.8907C129.37 38.9175 129.415 38.9442 129.465 38.971V39.1154H128.257V38.971C128.275 38.971 128.298 38.9629 128.326 38.9469C128.353 38.9309 128.367 38.9068 128.367 38.8747C128.367 38.8212 128.349 38.7517 128.312 38.6661L128.051 38.0725H126.376L126.129 38.6421C126.083 38.7544 126.06 38.8346 126.06 38.8827C126.06 38.9416 126.104 38.971 126.191 38.971V39.1154H125.216V38.971Z" fill="white"/>
<path d="M132.369 36.773C132.534 36.773 132.671 36.7583 132.781 36.7289C132.891 36.6994 132.978 36.658 133.042 36.6045C133.106 36.551 133.152 36.4882 133.179 36.416C133.207 36.3438 133.22 36.2649 133.22 36.1794C133.22 36.0938 133.207 36.0149 133.179 35.9427C133.152 35.8705 133.106 35.8077 133.042 35.7542C132.978 35.7007 132.891 35.6593 132.781 35.6299C132.671 35.6004 132.534 35.5857 132.369 35.5857H131.182V36.773H132.369ZM132.548 34.8959C132.767 34.8959 132.966 34.9186 133.145 34.964C133.323 35.0095 133.477 35.0817 133.605 35.1806C133.733 35.2796 133.831 35.4079 133.9 35.5657C133.969 35.7234 134.003 35.9173 134.003 36.1473C134.003 36.5002 133.914 36.7703 133.735 36.9575C133.557 37.1447 133.317 37.2703 133.014 37.3345L133.927 38.8587C133.96 38.9121 133.997 38.9442 134.041 38.9549C134.084 38.9656 134.124 38.971 134.161 38.971V39.1154H132.877V38.971C132.918 38.971 132.954 38.9629 132.984 38.9469C133.013 38.9309 133.028 38.9095 133.028 38.8827C133.028 38.856 133.019 38.8252 133.001 38.7905C132.982 38.7557 132.955 38.7089 132.918 38.6501L132.163 37.3987H131.182V38.8266C131.182 38.8747 131.196 38.9108 131.226 38.9349C131.256 38.9589 131.31 38.971 131.388 38.971V39.1154H130.2V38.971C130.333 38.971 130.399 38.9228 130.399 38.8266V35.1846C130.399 35.0884 130.333 35.0403 130.2 35.0403V34.8959H132.548Z" fill="white"/>
<path d="M137.092 38.8265C137.092 38.9228 137.143 38.971 137.243 38.971V39.1153H136.186V38.971C136.218 38.971 136.247 38.9589 136.272 38.9349C136.297 38.9108 136.31 38.8747 136.31 38.8265V35.6339H135.177C135.136 35.6339 135.096 35.6472 135.057 35.674C135.018 35.7007 134.998 35.7515 134.998 35.8264H134.875V34.7033H134.998C134.998 34.7782 135.018 34.829 135.057 34.8557C135.096 34.8825 135.136 34.8958 135.177 34.8958H138.225C138.266 34.8958 138.306 34.8825 138.345 34.8557C138.384 34.829 138.403 34.7782 138.403 34.7033H138.527V35.8264H138.403C138.403 35.7515 138.384 35.7007 138.345 35.674C138.306 35.6472 138.266 35.6339 138.225 35.6339H137.092V38.8265Z" fill="white"/>
<path d="M139.66 37.7917L139.728 37.8319C139.728 37.88 139.737 37.9228 139.756 37.9602C139.788 38.0244 139.851 38.0872 139.944 38.1487C140.038 38.2102 140.146 38.265 140.267 38.3132C140.388 38.3613 140.515 38.4001 140.648 38.4295C140.781 38.4589 140.9 38.4736 141.005 38.4736C141.083 38.4736 141.184 38.4669 141.307 38.4535C141.431 38.4402 141.552 38.4121 141.671 38.3693C141.79 38.3265 141.893 38.2677 141.98 38.1928C142.067 38.118 142.11 38.019 142.11 37.896C142.11 37.773 142.07 37.6821 141.99 37.6233C141.91 37.5645 141.805 37.5217 141.674 37.4949C141.544 37.4682 141.395 37.4508 141.228 37.4428C141.061 37.4348 140.891 37.4227 140.717 37.4067C140.543 37.3906 140.372 37.3639 140.205 37.3265C140.038 37.289 139.89 37.2262 139.759 37.138C139.629 37.0497 139.523 36.9294 139.443 36.777C139.363 36.6246 139.323 36.4254 139.323 36.1794C139.323 36.0136 139.356 35.8505 139.423 35.69C139.489 35.5296 139.591 35.3879 139.728 35.2649C139.866 35.1419 140.039 35.0416 140.25 34.964C140.46 34.8865 140.708 34.8477 140.991 34.8477C141.234 34.8477 141.444 34.8691 141.623 34.9119C141.801 34.9547 141.956 35.0001 142.086 35.0483C142.217 35.0964 142.327 35.1419 142.416 35.1846C142.505 35.2274 142.579 35.2488 142.639 35.2488C142.703 35.2488 142.749 35.2328 142.776 35.2007L142.859 35.2649L142.385 36.2676L142.316 36.2355C142.307 36.1606 142.289 36.0991 142.261 36.051C142.225 35.9868 142.164 35.924 142.079 35.8625C141.995 35.801 141.895 35.7462 141.781 35.698C141.666 35.6499 141.543 35.6111 141.41 35.5817C141.277 35.5523 141.145 35.5376 141.012 35.5376C140.911 35.5376 140.807 35.547 140.7 35.5657C140.592 35.5844 140.495 35.6125 140.408 35.6499C140.321 35.6873 140.249 35.7368 140.192 35.7983C140.134 35.8598 140.106 35.936 140.106 36.0269C140.106 36.1553 140.146 36.2515 140.226 36.3157C140.306 36.3799 140.411 36.428 140.542 36.4601C140.672 36.4922 140.821 36.5136 140.988 36.5243C141.155 36.535 141.325 36.5484 141.499 36.5644C141.673 36.5804 141.844 36.6085 142.011 36.6486C142.178 36.6887 142.327 36.7529 142.457 36.8412C142.587 36.9294 142.693 37.0484 142.773 37.1981C142.853 37.3479 142.893 37.5431 142.893 37.7837C142.893 38.0618 142.83 38.2891 142.704 38.4656C142.578 38.6421 142.422 38.7811 142.234 38.8827C142.046 38.9843 141.844 39.0525 141.626 39.0873C141.409 39.122 141.206 39.1394 141.019 39.1394C140.758 39.1394 140.539 39.122 140.363 39.0873C140.187 39.0525 140.041 39.0097 139.924 38.9589C139.807 38.9081 139.714 38.8626 139.646 38.8225C139.577 38.7824 139.518 38.7624 139.467 38.7624C139.435 38.7624 139.406 38.7838 139.378 38.8266L139.282 38.7624L139.66 37.7917Z" fill="white"/>
<path d="M149.25 35.1846C149.25 35.0884 149.199 35.0403 149.099 35.0403V34.8959H150.156V35.0403C150.124 35.0403 150.095 35.0523 150.07 35.0764C150.045 35.1004 150.032 35.1365 150.032 35.1846V38.8266C150.032 38.8747 150.045 38.9108 150.07 38.9349C150.095 38.9589 150.124 38.971 150.156 38.971V39.1154H149.099V38.971C149.199 38.971 149.25 38.9228 149.25 38.8266V37.3185H147.039V38.8266C147.039 38.8747 147.052 38.9108 147.077 38.9349C147.102 38.9589 147.131 38.971 147.163 38.971V39.1154H146.126V38.971C146.213 38.971 146.257 38.9228 146.257 38.8266V35.1846C146.257 35.0884 146.213 35.0403 146.126 35.0403V34.8959H147.163V35.0403C147.131 35.0403 147.102 35.0523 147.077 35.0764C147.052 35.1004 147.039 35.1365 147.039 35.1846V36.5484H149.25V35.1846Z" fill="white"/>
<path d="M154.796 35.7622C154.796 35.7034 154.777 35.6593 154.738 35.6298C154.699 35.6004 154.632 35.5857 154.536 35.5857H152.311V36.5804H153.657C153.748 36.5804 153.819 36.5657 153.87 36.5363C153.92 36.5069 153.945 36.4307 153.945 36.3077H154.069V37.5591H153.945C153.945 37.4361 153.92 37.3572 153.87 37.3225C153.819 37.2877 153.748 37.2703 153.657 37.2703H152.311V38.3773H154.604C154.673 38.3773 154.729 38.3586 154.772 38.3212C154.816 38.2837 154.838 38.2329 154.838 38.1688H154.961V39.2678H154.838C154.838 39.1875 154.816 39.1421 154.772 39.1314C154.729 39.1207 154.673 39.1153 154.604 39.1153H151.405V38.971C151.437 38.971 151.466 38.9589 151.491 38.9349C151.516 38.9108 151.529 38.8747 151.529 38.8265V35.1846C151.529 35.1365 151.516 35.1004 151.491 35.0763C151.466 35.0523 151.437 35.0402 151.405 35.0402V34.8958H154.536C154.632 34.8958 154.699 34.8785 154.738 34.8437C154.777 34.809 154.796 34.7622 154.796 34.7033H154.92V35.7622H154.796Z" fill="white"/>
<path d="M158.112 36.773C158.277 36.773 158.414 36.7583 158.524 36.7289C158.634 36.6994 158.721 36.658 158.785 36.6045C158.849 36.551 158.895 36.4882 158.922 36.416C158.95 36.3438 158.963 36.2649 158.963 36.1794C158.963 36.0938 158.95 36.0149 158.922 35.9427C158.895 35.8705 158.849 35.8077 158.785 35.7542C158.721 35.7007 158.634 35.6593 158.524 35.6299C158.414 35.6004 158.277 35.5857 158.112 35.5857H156.924V36.773H158.112ZM158.29 34.8959C158.51 34.8959 158.709 34.9186 158.888 34.964C159.066 35.0095 159.22 35.0817 159.348 35.1806C159.476 35.2796 159.574 35.4079 159.643 35.5657C159.712 35.7234 159.746 35.9173 159.746 36.1473C159.746 36.5002 159.657 36.7703 159.478 36.9575C159.3 37.1447 159.059 37.2703 158.757 37.3345L159.67 38.8587C159.702 38.9121 159.74 38.9442 159.784 38.9549C159.827 38.9656 159.867 38.971 159.904 38.971V39.1154H158.62V38.971C158.661 38.971 158.697 38.9629 158.726 38.9469C158.756 38.9309 158.771 38.9095 158.771 38.8827C158.771 38.856 158.762 38.8252 158.744 38.7905C158.725 38.7557 158.698 38.7089 158.661 38.6501L157.906 37.3987H156.924V38.8266C156.924 38.8747 156.939 38.9108 156.969 38.9349C156.999 38.9589 157.053 38.971 157.13 38.971V39.1154H155.943V38.971C156.075 38.971 156.142 38.9228 156.142 38.8266V35.1846C156.142 35.0884 156.075 35.0403 155.943 35.0403V34.8959H158.29Z" fill="white"/>
<path d="M164.332 35.7622C164.332 35.7034 164.312 35.6593 164.273 35.6298C164.234 35.6004 164.167 35.5857 164.071 35.5857H161.847V36.5804H163.192C163.284 36.5804 163.355 36.5657 163.405 36.5363C163.455 36.5069 163.48 36.4307 163.48 36.3077H163.604V37.5591H163.48C163.48 37.4361 163.455 37.3572 163.405 37.3225C163.355 37.2877 163.284 37.2703 163.192 37.2703H161.847V38.3773H164.139C164.208 38.3773 164.264 38.3586 164.308 38.3212C164.351 38.2837 164.373 38.2329 164.373 38.1688H164.496V39.2678H164.373C164.373 39.1875 164.351 39.1421 164.308 39.1314C164.264 39.1207 164.208 39.1153 164.139 39.1153H160.94V38.971C160.972 38.971 161.001 38.9589 161.026 38.9349C161.051 38.9108 161.064 38.8747 161.064 38.8265V35.1846C161.064 35.1365 161.051 35.1004 161.026 35.0763C161.001 35.0523 160.972 35.0402 160.94 35.0402V34.8958H164.071C164.167 34.8958 164.234 34.8785 164.273 34.8437C164.312 34.809 164.332 34.7622 164.332 34.7033H164.455V35.7622H164.332Z" fill="white"/>
<path d="M165.485 38.5939C165.485 38.4388 165.533 38.3051 165.629 38.1928C165.725 38.0805 165.839 38.0244 165.972 38.0244C166.105 38.0244 166.219 38.0805 166.315 38.1928C166.411 38.3051 166.46 38.4388 166.46 38.5939C166.46 38.749 166.411 38.8787 166.315 38.983C166.219 39.0873 166.105 39.1394 165.972 39.1394C165.839 39.1394 165.725 39.0873 165.629 38.983C165.533 38.8787 165.485 38.749 165.485 38.5939Z" fill="white"/>
<path d="M9.85959 0H84.7527V10.161H8.02899L9.85959 0Z" fill="#0097B2"/>
<path d="M16.2633 3.04727V3.19166C16.2221 3.19166 16.1832 3.19835 16.1466 3.21172C16.1099 3.22509 16.0916 3.25851 16.0916 3.31199C16.0916 3.34408 16.1248 3.42029 16.1912 3.54062C16.2575 3.66094 16.3353 3.79731 16.4246 3.94973C16.5138 4.10214 16.6065 4.25856 16.7026 4.419C16.7987 4.57944 16.8765 4.71582 16.936 4.82812L17.7392 3.5366C17.7758 3.47243 17.8055 3.42162 17.8284 3.38418C17.8513 3.34675 17.8627 3.31199 17.8627 3.2799C17.8627 3.24247 17.841 3.2184 17.7975 3.2077C17.7541 3.19701 17.714 3.19166 17.6774 3.19166V3.04727H18.8787V3.19166C18.8421 3.19166 18.8078 3.19567 18.7758 3.2037C18.7437 3.21172 18.7105 3.23043 18.6762 3.25985C18.6419 3.28926 18.6053 3.33205 18.5664 3.3882C18.5275 3.44435 18.4806 3.52055 18.4257 3.61682L17.2586 5.55008V6.97797C17.2586 7.07423 17.3113 7.12237 17.4165 7.12237V7.26676H16.3319V7.12237C16.3731 7.12237 16.4074 7.11033 16.4349 7.08627C16.4623 7.0622 16.4761 7.0261 16.4761 6.97797V5.55008L15.1512 3.38418C15.1191 3.3307 15.0699 3.28525 15.0036 3.24782C14.9372 3.21038 14.8812 3.19166 14.8354 3.19166V3.04727H16.2633Z" fill="white"/>
<path d="M21.6246 3.73713C21.4507 3.73713 21.2768 3.76922 21.1029 3.83339C20.929 3.89757 20.7723 3.98981 20.6327 4.11014C20.4931 4.23047 20.3798 4.37887 20.2929 4.55536C20.2059 4.73184 20.1624 4.93238 20.1624 5.15699C20.1624 5.38161 20.2059 5.58215 20.2929 5.75863C20.3798 5.93511 20.4931 6.08352 20.6327 6.20385C20.7723 6.32417 20.929 6.41643 21.1029 6.4806C21.2768 6.54478 21.4507 6.57686 21.6246 6.57686C21.7985 6.57686 21.9724 6.54478 22.1464 6.4806C22.3203 6.41643 22.477 6.32417 22.6166 6.20385C22.7562 6.08352 22.8694 5.93511 22.9564 5.75863C23.0434 5.58215 23.0868 5.38161 23.0868 5.15699C23.0868 4.93238 23.0434 4.73184 22.9564 4.55536C22.8694 4.37887 22.7562 4.23047 22.6166 4.11014C22.477 3.98981 22.3203 3.89757 22.1464 3.83339C21.9724 3.76922 21.7985 3.73713 21.6246 3.73713ZM21.6246 2.99911C21.8763 2.99911 22.1326 3.04324 22.3935 3.13148C22.6543 3.21972 22.8923 3.35208 23.1074 3.52856C23.3225 3.70504 23.4987 3.92832 23.636 4.19839C23.7733 4.46845 23.842 4.78799 23.842 5.15699C23.842 5.526 23.7733 5.84553 23.636 6.1156C23.4987 6.38567 23.3225 6.60895 23.1074 6.78543C22.8923 6.96191 22.6543 7.09026 22.3935 7.17048C22.1326 7.2507 21.8763 7.29081 21.6246 7.29081C21.3729 7.29081 21.1166 7.2507 20.8558 7.17048C20.5949 7.09026 20.3569 6.96191 20.1418 6.78543C19.9268 6.60895 19.7506 6.38567 19.6133 6.1156C19.476 5.84553 19.4073 5.526 19.4073 5.15699C19.4073 4.78799 19.476 4.46845 19.6133 4.19839C19.7506 3.92832 19.9268 3.70504 20.1418 3.52856C20.3569 3.35208 20.5949 3.21972 20.8558 3.13148C21.1166 3.04324 21.3729 2.99911 21.6246 2.99911Z" fill="white"/>
<path d="M25.8739 3.19166C25.7732 3.19166 25.7229 3.23979 25.7229 3.33605V5.74261C25.7229 6.07953 25.8155 6.31082 26.0009 6.4365C26.1862 6.56217 26.4574 6.62501 26.8144 6.62501C27.1713 6.62501 27.4425 6.56217 27.6278 6.4365C27.8132 6.31082 27.9059 6.07953 27.9059 5.74261V3.33605C27.9059 3.23979 27.8372 3.19166 27.6999 3.19166V3.04727H28.7983V3.19166C28.6884 3.19166 28.6335 3.23979 28.6335 3.33605V5.7025C28.6335 6.01803 28.5946 6.27873 28.5168 6.48463C28.439 6.69052 28.3223 6.85497 28.1667 6.97797C28.0111 7.10097 27.8178 7.18386 27.5867 7.22665C27.3555 7.26943 27.089 7.29083 26.7869 7.29083C26.4849 7.29083 26.2183 7.26943 25.9872 7.22665C25.7561 7.18386 25.5627 7.10097 25.4071 6.97797C25.2515 6.85497 25.1348 6.69052 25.057 6.48463C24.9792 6.27873 24.9403 6.01803 24.9403 5.7025V3.33605C24.9403 3.23979 24.8762 3.19166 24.7481 3.19166V3.04727H25.8739V3.19166Z" fill="white"/>
<path d="M31.9698 4.92438C32.1346 4.92438 32.2719 4.90967 32.3817 4.88026C32.4916 4.85085 32.5785 4.8094 32.6426 4.75592C32.7066 4.70244 32.7524 4.63961 32.7799 4.56741C32.8073 4.49521 32.8211 4.41633 32.8211 4.33076C32.8211 4.2452 32.8073 4.16631 32.7799 4.09412C32.7524 4.02192 32.7066 3.95909 32.6426 3.90561C32.5785 3.85213 32.4916 3.81068 32.3817 3.78127C32.2719 3.75186 32.1346 3.73715 31.9698 3.73715H30.7822V4.92438H31.9698ZM32.1483 3.04727C32.368 3.04727 32.5671 3.06999 32.7455 3.11545C32.924 3.16091 33.0773 3.23311 33.2055 3.33205C33.3336 3.43098 33.432 3.55933 33.5007 3.71709C33.5693 3.87485 33.6036 4.06872 33.6036 4.29868C33.6036 4.65164 33.5144 4.92171 33.3359 5.10888C33.1574 5.29606 32.9172 5.42174 32.6151 5.48591L33.5281 7.01006C33.5602 7.06354 33.5979 7.09563 33.6414 7.10632C33.6849 7.11702 33.7249 7.12237 33.7615 7.12237V7.26676H32.4778V7.12237C32.519 7.12237 32.5545 7.11435 32.5842 7.0983C32.614 7.08226 32.6288 7.06087 32.6288 7.03413C32.6288 7.00739 32.6197 6.97664 32.6014 6.94188C32.5831 6.90712 32.5556 6.86032 32.519 6.80149L31.7639 5.55008H30.7822V6.97797C30.7822 7.0261 30.7971 7.0622 30.8268 7.08627C30.8566 7.11033 30.9104 7.12237 30.9882 7.12237V7.26676H29.8006V7.12237C29.9333 7.12237 29.9996 7.07423 29.9996 6.97797V3.33605C29.9996 3.23979 29.9333 3.19166 29.8006 3.19166V3.04727H32.1483Z" fill="white"/>
<path d="M40.2007 3.91362C40.2007 3.85479 40.1812 3.81067 40.1423 3.78126C40.1034 3.75185 40.0359 3.73714 39.9398 3.73714H37.7156V4.73185H39.0611C39.1526 4.73185 39.2236 4.72115 39.2739 4.69976C39.3243 4.67837 39.3494 4.63023 39.3494 4.55536H39.473V5.71051H39.3494C39.3494 5.58751 39.3243 5.50863 39.2739 5.47386C39.2236 5.4391 39.1526 5.42172 39.0611 5.42172H37.7156V6.97796C37.7156 7.02609 37.7351 7.06219 37.774 7.08626C37.8129 7.11032 37.8621 7.12236 37.9216 7.12236V7.26675H36.7545V7.12236C36.8735 7.12236 36.933 7.07422 36.933 6.97796V3.33604C36.933 3.23978 36.8735 3.19165 36.7545 3.19165V3.04726H39.9398C40.0359 3.04726 40.1034 3.02988 40.1423 2.99512C40.1812 2.96036 40.2007 2.91356 40.2007 2.85474H40.3242V3.91362H40.2007Z" fill="white"/>
<path d="M41.0656 7.12237C41.1846 7.12237 41.2441 7.07423 41.2441 6.97797V3.33605C41.2441 3.23979 41.1846 3.19166 41.0656 3.19166V3.04727H42.2051V3.19166C42.0861 3.19166 42.0266 3.23979 42.0266 3.33605V6.97797C42.0266 7.07423 42.0861 7.12237 42.2051 7.12237V7.26676H41.0656V7.12237Z" fill="white"/>
<path d="M45.2669 6.97796C45.2669 7.07422 45.3172 7.12236 45.4179 7.12236V7.26675H44.3607V7.12236C44.3928 7.12236 44.4214 7.11032 44.4465 7.08626C44.4717 7.06219 44.4843 7.02609 44.4843 6.97796V3.78527H43.3516C43.3104 3.78527 43.2704 3.79864 43.2315 3.82538C43.1926 3.85212 43.1731 3.90292 43.1731 3.97779H43.0496V2.85474H43.1731C43.1731 2.92961 43.1926 2.98041 43.2315 3.00715C43.2704 3.03388 43.3104 3.04726 43.3516 3.04726H46.3996C46.4408 3.04726 46.4808 3.03388 46.5197 3.00715C46.5586 2.98041 46.578 2.92961 46.578 2.85474H46.7016V3.97779H46.578C46.578 3.90292 46.5586 3.85212 46.5197 3.82538C46.4808 3.79864 46.4408 3.78527 46.3996 3.78527H45.2669V6.97796Z" fill="white"/>
<path d="M47.6009 7.12237C47.6878 7.12237 47.7313 7.07423 47.7313 6.97797V3.33605C47.7313 3.23979 47.6878 3.19166 47.6009 3.19166V3.04727H48.7747V3.19166C48.7381 3.19166 48.7198 3.2184 48.7198 3.27188C48.7198 3.31467 48.7656 3.38954 48.8571 3.49649L50.8273 5.887V3.33605C50.8273 3.23979 50.7678 3.19166 50.6488 3.19166V3.04727H51.6854V3.19166C51.5984 3.19166 51.555 3.23979 51.555 3.33605V6.97797C51.555 7.07423 51.5984 7.12237 51.6854 7.12237V7.26676H50.5733V7.12237C50.6328 7.12237 50.6625 7.09831 50.6625 7.05017C50.6625 7.01274 50.6259 6.95124 50.5527 6.86567L48.459 4.31472V6.97797C48.459 7.07423 48.5116 7.12237 48.6168 7.12237V7.26676H47.6009V7.12237Z" fill="white"/>
<path d="M56.2985 3.91362C56.2985 3.85479 56.279 3.81067 56.2401 3.78126C56.2012 3.75185 56.1337 3.73714 56.0376 3.73714H53.8134V4.73185H55.1589C55.2505 4.73185 55.3214 4.71714 55.3717 4.68772C55.4221 4.65831 55.4473 4.58211 55.4473 4.45911H55.5708V5.71051H55.4473C55.4473 5.58751 55.4221 5.50863 55.3717 5.47386C55.3214 5.4391 55.2505 5.42172 55.1589 5.42172H53.8134V6.52874H56.1063C56.1749 6.52874 56.231 6.51002 56.2745 6.47259C56.3179 6.43515 56.3397 6.38435 56.3397 6.32017H56.4632V7.41916H56.3397C56.3397 7.33894 56.3179 7.29349 56.2745 7.2828C56.231 7.2721 56.1749 7.26675 56.1063 7.26675H52.9073V7.12236C52.9393 7.12236 52.9679 7.11032 52.9931 7.08626C53.0183 7.06219 53.0309 7.02609 53.0309 6.97796V3.33604C53.0309 3.28791 53.0183 3.25181 52.9931 3.22775C52.9679 3.20368 52.9393 3.19165 52.9073 3.19165V3.04726H56.0376C56.1337 3.04726 56.2012 3.02988 56.2401 2.99512C56.279 2.96036 56.2985 2.91356 56.2985 2.85474H56.422V3.91362H56.2985Z" fill="white"/>
<path d="M57.7538 5.94314L57.8225 5.98324C57.8225 6.03137 57.8316 6.07416 57.8499 6.1116C57.882 6.17577 57.9449 6.2386 58.0387 6.30011C58.1325 6.36161 58.2401 6.41643 58.3613 6.46456C58.4826 6.51269 58.6096 6.55146 58.7423 6.58087C58.8751 6.61029 58.994 6.62499 59.0993 6.62499C59.1771 6.62499 59.2778 6.61831 59.4014 6.60494C59.5249 6.59157 59.6462 6.56349 59.7652 6.52071C59.8842 6.47793 59.9872 6.4191 60.0741 6.34423C60.1611 6.26936 60.2045 6.17042 60.2045 6.04742C60.2045 5.92442 60.1645 5.8335 60.0844 5.77468C60.0043 5.71585 59.899 5.67307 59.7686 5.64633C59.6382 5.61959 59.4895 5.60221 59.3224 5.59419C59.1554 5.58616 58.9849 5.57413 58.811 5.55809C58.6371 5.54204 58.4666 5.51531 58.2996 5.47787C58.1325 5.44044 57.9838 5.37759 57.8534 5.28935C57.7229 5.20111 57.6177 5.08079 57.5376 4.92838C57.4575 4.77596 57.4174 4.57675 57.4174 4.33074C57.4174 4.16496 57.4506 4.00185 57.517 3.84142C57.5833 3.68098 57.6852 3.53925 57.8225 3.41625C57.9598 3.29325 58.1337 3.19298 58.3442 3.11543C58.5547 3.03789 58.8018 2.99911 59.0856 2.99911C59.3281 2.99911 59.5387 3.02051 59.7171 3.0633C59.8956 3.10608 60.0501 3.15153 60.1805 3.19966C60.3109 3.24779 60.4208 3.29325 60.51 3.33604C60.5993 3.37882 60.6736 3.40021 60.7331 3.40021C60.7972 3.40021 60.843 3.38417 60.8704 3.35208L60.9528 3.41625L60.4791 4.41898L60.4105 4.3869C60.4013 4.31202 60.383 4.25052 60.3556 4.20239C60.3189 4.13822 60.2583 4.07538 60.1736 4.01388C60.089 3.95238 59.9894 3.89757 59.875 3.84944C59.7606 3.80131 59.637 3.76253 59.5043 3.73312C59.3716 3.70371 59.2389 3.689 59.1062 3.689C59.0055 3.689 58.9014 3.69835 58.7938 3.71707C58.6863 3.73579 58.589 3.76386 58.5021 3.8013C58.4151 3.83873 58.343 3.88821 58.2858 3.94971C58.2286 4.01121 58.2 4.08741 58.2 4.17833C58.2 4.30668 58.2401 4.40294 58.3202 4.46712C58.4002 4.53129 58.5055 4.57942 58.6359 4.61151C58.7664 4.64359 58.9151 4.66499 59.0821 4.67569C59.2492 4.68638 59.4197 4.69975 59.5936 4.71579C59.7675 4.73184 59.9379 4.75991 60.105 4.80002C60.272 4.84013 60.4208 4.90431 60.5512 4.99255C60.6816 5.08079 60.7869 5.19978 60.867 5.34952C60.9471 5.49926 60.9871 5.69446 60.9871 5.93511C60.9871 6.2132 60.9242 6.44049 60.7983 6.61697C60.6725 6.79345 60.5157 6.9325 60.3281 7.03411C60.1405 7.13572 59.9379 7.2039 59.7206 7.23866C59.5032 7.27343 59.3007 7.29081 59.113 7.29081C58.8522 7.29081 58.6336 7.27343 58.4575 7.23866C58.2813 7.2039 58.1348 7.16112 58.0181 7.11031C57.9014 7.05951 57.8087 7.01405 57.7401 6.97395C57.6714 6.93384 57.6119 6.91378 57.5616 6.91378C57.5296 6.91378 57.4998 6.93517 57.4724 6.97795L57.3763 6.91378L57.7538 5.94314Z" fill="white"/>
<path d="M62.3326 5.94314L62.4013 5.98324C62.4013 6.03137 62.4104 6.07416 62.4287 6.1116C62.4607 6.17577 62.5237 6.2386 62.6175 6.30011C62.7113 6.36161 62.8189 6.41643 62.9401 6.46456C63.0614 6.51269 63.1884 6.55146 63.3211 6.58087C63.4539 6.61029 63.5728 6.62499 63.6781 6.62499C63.7559 6.62499 63.8566 6.61831 63.9801 6.60494C64.1037 6.59157 64.225 6.56349 64.344 6.52071C64.463 6.47793 64.5659 6.4191 64.6529 6.34423C64.7398 6.26936 64.7833 6.17042 64.7833 6.04742C64.7833 5.92442 64.7433 5.8335 64.6632 5.77468C64.5831 5.71585 64.4778 5.67307 64.3474 5.64633C64.217 5.61959 64.0682 5.60221 63.9012 5.59419C63.7342 5.58616 63.5637 5.57413 63.3898 5.55809C63.2159 5.54204 63.0454 5.51531 62.8784 5.47787C62.7113 5.44044 62.5626 5.37759 62.4321 5.28935C62.3017 5.20111 62.1965 5.08079 62.1164 4.92838C62.0363 4.77596 61.9962 4.57675 61.9962 4.33074C61.9962 4.16496 62.0294 4.00185 62.0958 3.84142C62.1621 3.68098 62.264 3.53925 62.4013 3.41625C62.5385 3.29325 62.7125 3.19298 62.923 3.11543C63.1335 3.03789 63.3806 2.99911 63.6644 2.99911C63.9069 2.99911 64.1174 3.02051 64.2959 3.0633C64.4744 3.10608 64.6289 3.15153 64.7593 3.19966C64.8897 3.24779 64.9996 3.29325 65.0888 3.33604C65.178 3.37882 65.2524 3.40021 65.3119 3.40021C65.376 3.40021 65.4217 3.38417 65.4492 3.35208L65.5316 3.41625L65.0579 4.41898L64.9893 4.3869C64.9801 4.31202 64.9618 4.25052 64.9344 4.20239C64.8977 4.13822 64.8371 4.07538 64.7524 4.01388C64.6678 3.95238 64.5682 3.89757 64.4538 3.84944C64.3394 3.80131 64.2158 3.76253 64.0831 3.73312C63.9504 3.70371 63.8177 3.689 63.685 3.689C63.5843 3.689 63.4802 3.69835 63.3726 3.71707C63.2651 3.73579 63.1678 3.76386 63.0809 3.8013C62.9939 3.83873 62.9218 3.88821 62.8646 3.94971C62.8074 4.01121 62.7788 4.08741 62.7788 4.17833C62.7788 4.30668 62.8189 4.40294 62.899 4.46712C62.979 4.53129 63.0843 4.57942 63.2147 4.61151C63.3452 4.64359 63.4939 4.66499 63.6609 4.67569C63.828 4.68638 63.9985 4.69975 64.1724 4.71579C64.3463 4.73184 64.5167 4.75991 64.6838 4.80002C64.8508 4.84013 64.9996 4.90431 65.13 4.99255C65.2604 5.08079 65.3657 5.19978 65.4458 5.34952C65.5259 5.49926 65.5659 5.69446 65.5659 5.93511C65.5659 6.2132 65.503 6.44049 65.3771 6.61697C65.2513 6.79345 65.0945 6.9325 64.9069 7.03411C64.7193 7.13572 64.5167 7.2039 64.2994 7.23866C64.082 7.27343 63.8795 7.29081 63.6918 7.29081C63.431 7.29081 63.2124 7.27343 63.0362 7.23866C62.86 7.2039 62.7136 7.16112 62.5969 7.11031C62.4802 7.05951 62.3875 7.01405 62.3189 6.97395C62.2502 6.93384 62.1907 6.91378 62.1404 6.91378C62.1084 6.91378 62.0786 6.93517 62.0512 6.97795L61.955 6.91378L62.3326 5.94314Z" fill="white"/>
</svg>
