<svg xmlns="http://www.w3.org/2000/svg" xml:space="preserve" width="2.66666in" height="2.66666in" version="1.1" style="shape-rendering:geometricPrecision; text-rendering:geometricPrecision; image-rendering:optimizeQuality; fill-rule:evenodd; clip-rule:evenodd" viewBox="0 0 2667 2667" xmlns:xlink="http://www.w3.org/1999/xlink">
 <defs>
  <style type="text/css">
   
    .fil1 {fill:white}
    .fil0 {fill:url(#id0)}
    .fil2 {fill:url(#id1)}
   
  </style>
  <linearGradient id="id0" gradientUnits="userSpaceOnUse" x1="-0" y1="1333.33" x2="2666.66" y2="1333.33">
   <stop offset="0" style="stop-opacity:1; stop-color:#033B4B" id="id_114"></stop>
   <stop offset="1" style="stop-opacity:1; stop-color:#108A99" id="id_115"></stop>
  </linearGradient>
  <linearGradient id="id1" gradientUnits="userSpaceOnUse" xlink:href="#id0" x1="513.354" y1="1333.33" x2="2153.31" y2="1333.33">
  </linearGradient>
 </defs>
 <g id="_314892792">
  <rect class="fil0" width="2667" height="2667" rx="592" ry="592" id="id_111"></rect>
  <rect class="fil1" x="215" y="215" width="2237" height="2237" rx="497" ry="497" id="id_112" style="fill: rgb(20, 20, 20);"></rect>
 </g>
 <g id="Layer_x0020_1">
  <metadata id="CorelCorpID_0Corel-Layer"></metadata>
  <path class="fil2" d="M2113 2187l-195 0c-22,0 -40,-18 -40,-40l0 -1117c0,-22 18,-40 40,-40l195 0c22,0 40,18 40,40l0 1117c0,22 -18,40 -40,40zm-1048 -780l-68 -187c-132,-20 -242,-106 -297,-223l-5 14 -1 1 -165 324 -16 267 35 146c1,2 1,3 1,5l1 92 190 57 418 105 226 -2 242 -60 72 -80c8,-8 21,-8 29,-1 8,7 8,20 1,28l-55 60 130 35 35 -5 0 -671 -115 138c-4,4 -10,7 -16,7 -4,0 -9,-2 -12,-5 -9,-7 -10,-20 -3,-28l53 -63 -184 31 -192 166c-4,3 -9,4 -13,4 -6,0 -12,-2 -16,-7 -7,-8 -6,-21 3,-28l77 -67 -141 -90 -180 61 -128 105c-4,3 -8,5 -13,5 -6,0 -12,-3 -16,-7 -7,-9 -5,-22 3,-29l120 -98zm-347 339l300 77c11,3 17,14 14,24 -2,9 -10,15 -19,15 -2,0 -3,0 -5,0l-300 -77c-11,-3 -17,-14 -14,-24 2,-11 13,-17 24,-15zm915 -874l-134 0c-22,0 -40,-18 -40,-40 0,-22 18,-40 40,-40l134 0 -18 -30c-11,-19 -4,-43 15,-54 19,-11 44,-5 55,14l51 89c1,2 2,4 3,6l0 0 0 0 0 1 1 0 0 0 0 1 0 0 0 0 0 0 0 1 0 0 0 0 0 1 0 0 0 0 1 0 0 1 0 0 0 1 0 0 0 0 0 0 0 0 0 1 0 0 0 1 0 0 0 0 0 1 0 0 1 0 0 0 0 0 0 1 0 0 0 0 0 1 0 0c0,1 0,1 0,2l0 0c0,7 -1,14 -4,20l0 0 0 0 -1 1 0 0 0 0 0 1 0 0 -52 90c-8,13 -21,20 -35,20 -7,0 -14,-2 -20,-5 -19,-12 -26,-36 -15,-55l18 -30zm-577 312c-194,0 -352,-158 -352,-352 0,-194 158,-352 352,-352 194,0 352,158 352,352 0,194 -158,352 -352,352zm51 -332c11,0 20,-9 20,-20 0,-39 -32,-71 -71,-71 -11,0 -20,9 -20,20 0,12 9,21 20,21 17,0 31,13 31,30 0,11 9,20 20,20zm-51 186c114,0 206,-92 206,-206 0,-114 -92,-206 -206,-206 -114,0 -206,92 -206,206 0,114 92,206 206,206zm0 -372c92,0 166,74 166,166 0,92 -74,166 -166,166 -92,0 -166,-74 -166,-166 0,-92 74,-166 166,-166z" id="id_113"></path>
 </g>
</svg>