<?xml version="1.0" encoding="UTF-8" standalone="no"?> <svg xmlns="http://www.w3.org/2000/svg" viewBox="0 0 48 48"><defs><style>.cls-1{fill:#d2d6d6;}.cls-2{fill:#eaeff0;}.cls-3{fill:#0081bd;}.cls-4{fill:#009ae0;}</style></defs><title>Mineral Water</title><g id="Mineral_Water" data-name="Mineral Water"><path class="cls-1" d="M24,46c-5.616,0-12.168-1.164-12.249-4.439L8.006,7.108A1,1,0,0,1,9,6H39a1,1,0,0,1,.994,1.108L36.249,41.561C36.168,44.836,29.616,46,24,46Z"/><ellipse class="cls-2" cx="24" cy="7" rx="16" ry="5"/><path class="cls-3" d="M12.425,20c1.016,9.347,2.311,21.258,2.311,21.263C15.422,41.913,18.615,43,24,43s8.578-1.087,9.264-1.737c0,0,1.295-11.916,2.311-21.263Z"/><ellipse class="cls-4" cx="24" cy="20" rx="11.575" ry="2.5"/></g></svg>